<?xml version="1.0" encoding="UTF-8"?>
<svg width="22px" height="14px" viewBox="0 0 22 14" version="1.1" xmlns="http://www.w3.org/2000/svg" xmlns:xlink="http://www.w3.org/1999/xlink">
    <!-- Generator: Sketch 50.2 (55047) - http://www.bohemiancoding.com/sketch -->
    <title>Assessment scheduled@2x</title>
    <desc>Created with Sketch.</desc>
    <defs></defs>
    <g id="Page-1" stroke="none" stroke-width="1" fill="none" fill-rule="evenodd">
        <g id="Provider-chosen-hover-Copy" transform="translate(-837.000000, -277.000000)" fill="#54D0FF" stroke="#54D0FF" stroke-width="0.8">
            <path d="M857.3624,283.900064 C857.322933,283.82081 853.4584,278.797616 848,278.797616 C842.5416,278.797616 838.677067,283.82081 838.6376,283.900064 L838,283.421602 C838.159467,283.18277 842.143733,278 848,278 C853.856267,278 857.840533,283.18277 858,283.422669 L857.3624,283.900064 Z M852.1032,285.933732 C852.1032,283.661233 850.270933,281.867464 848.039467,281.867464 C845.808267,281.867464 843.976,283.700994 843.976,285.933732 C843.976,288.16647 845.808267,290 848.039467,290 C850.270933,290 852.063467,288.206231 852.1032,285.933732 Z M851.3072,285.933732 C851.3072,287.767262 849.833333,289.202651 848.040533,289.202651 C846.248,289.202651 844.773867,287.727768 844.773867,285.933732 C844.773867,284.139696 846.248,282.664814 848.040533,282.664814 C849.832267,282.664814 851.3072,284.139696 851.3072,285.933732 Z" id="Assessment-scheduled"></path>
        </g>
    </g>
</svg>