<?xml version="1.0" encoding="UTF-8"?>
<svg width="13px" height="13px" viewBox="0 0 13 13" version="1.1" xmlns="http://www.w3.org/2000/svg" xmlns:xlink="http://www.w3.org/1999/xlink">
    <!-- Generator: Sketch 50.2 (55047) - http://www.bohemiancoding.com/sketch -->
    <title>Back 1</title>
    <desc>Created with Sketch.</desc>
    <defs></defs>
    <g id="Page-1" stroke="none" stroke-width="1" fill="none" fill-rule="evenodd">
        <g id="Provider-chosen-hover-Copy" transform="translate(-90.000000, -23.000000)" fill="#54D0FF">
            <g id="Head-menu" transform="translate(70.000000, 0.000000)">
                <g id="Back-1" transform="translate(20.000000, 23.000000)">
                    <path d="M12.7355566,7.12216548 C13.0900245,6.7716371 13.087201,6.20149963 12.7327331,5.85239836 L7.01877379,0.224325169 C6.33667781,-0.45560604 5.31564878,0.563591634 5.9963348,1.24351924 L10.2894867,5.52160446 C10.430707,5.66378566 10.384106,5.77921936 10.1849833,5.77921936 L0.723057169,5.77921936 C0.323387319,5.77921936 0,6.10159115 0,6.49998176 C0,6.89837236 0.323398165,7.22074416 0.723057169,7.22074416 L10.1849833,7.22074416 C10.3855196,7.22074416 10.4335342,7.33336328 10.2894867,7.47695357 L5.9963348,11.7564803 C5.31564878,12.4364115 6.33668142,13.4556056 7.01877379,12.7756744 L12.7355566,7.12216548 Z" id="Page-1" transform="translate(6.500000, 6.500000) rotate(-180.000000) translate(-6.500000, -6.500000) "></path>
                </g>
            </g>
        </g>
    </g>
</svg>