<?xml version="1.0" encoding="UTF-8"?>
<svg width="14px" height="18px" viewBox="0 0 14 18" version="1.1" xmlns="http://www.w3.org/2000/svg" xmlns:xlink="http://www.w3.org/1999/xlink">
    <!-- Generator: Sketch 50.2 (55047) - http://www.bohemiancoding.com/sketch -->
    <title>Contracted@2x</title>
    <desc>Created with Sketch.</desc>
    <defs></defs>
    <g id="Page-1" stroke="none" stroke-width="1" fill="none" fill-rule="evenodd">
        <g id="Provider-chosen-hover-Copy" transform="translate(-129.000000, -176.000000)" fill="#B9C6CE" stroke="#B8C5CD" stroke-width="0.4">
            <path d="M141.895357,178.014615 C141.961594,177.914508 141.999981,177.788805 141.999981,177.66086 C141.999981,177.343234 141.74783,177 141.339872,177 L130.769999,177 C130.626988,177 130.495265,177.046667 130.387629,177.124193 C130.16257,177.203226 130,177.414727 130,177.666878 L130,192.469132 C130,192.78751 130.258163,193.046443 130.577311,193.046443 C130.895689,193.046443 131.154622,192.788281 131.154622,192.469132 L131.154622,185.868044 L141.339891,185.868044 C141.747849,185.868044 142,185.524829 142,185.207183 C142,185.079227 141.961613,184.95353 141.88785,184.84364 L139.215852,181.743298 C139.061552,181.564158 139.061552,181.303739 139.215852,181.124598 L141.895357,178.014615 Z" id="Contracted"></path>
        </g>
    </g>
</svg>