<?xml version="1.0" encoding="UTF-8"?>
<svg width="17px" height="17px" viewBox="0 0 17 17" version="1.1" xmlns="http://www.w3.org/2000/svg" xmlns:xlink="http://www.w3.org/1999/xlink">
    <!-- Generator: Sketch 50.2 (55047) - http://www.bohemiancoding.com/sketch -->
    <title>Contract Signed@2x</title>
    <desc>Created with Sketch.</desc>
    <defs></defs>
    <g id="Page-1" stroke="none" stroke-width="1" fill="none" fill-rule="evenodd">
        <g id="Provider-chosen-hover-Copy" transform="translate(-839.000000, -327.000000)" fill="#54D0FF" stroke="#54D0FF" stroke-width="0.7">
            <path d="M851.924109,342.996876 L851.924109,342.996876 C852.143295,342.981199 852.304543,342.77631 852.279677,342.547094 L851.741839,337.690044 L854.89734,334.096924 C855.1014,333.864735 854.98527,333.487934 854.689947,333.425495 L850.118586,332.464572 L847.836495,328.204348 C847.688064,327.931884 847.314552,327.931884 847.166377,328.204348 L844.88326,332.464572 L840.3119,333.426576 C840.014525,333.487934 839.89737,333.866897 840.104507,334.099086 L843.260007,337.692206 L842.72217,342.549257 C842.68833,342.861725 842.992626,343.093104 843.265134,342.963089 L847.500923,340.922041 L851.736712,342.962007 C851.794905,342.989578 851.86002,343.002282 851.924109,342.997957 L851.924109,342.996876 Z M851.435493,341.926211 L847.661146,340.109244 C847.559116,340.059508 847.440936,340.059508 847.338649,340.109244 L843.564559,341.926211 L844.045229,337.600304 C844.058047,337.483263 844.022157,337.365952 843.946019,337.279456 L841.135062,334.079084 L845.204732,333.221687 C845.314966,333.198441 845.410074,333.12573 845.464166,333.023286 L847.500923,329.226359 L849.536655,333.023286 C849.591772,333.12573 849.685855,333.198441 849.796089,333.221687 L853.865758,334.080165 L851.052751,337.280537 C850.97687,337.367033 850.940723,337.484344 850.953798,337.601385 L851.434467,341.927293 L851.435493,341.926211 Z" id="Contract-Signed"></path>
        </g>
    </g>
</svg>