<?xml version="1.0" encoding="UTF-8"?>
<svg width="17px" height="14px" viewBox="0 0 17 14" version="1.1" xmlns="http://www.w3.org/2000/svg" xmlns:xlink="http://www.w3.org/1999/xlink">
    <!-- Generator: Sketch 50.2 (55047) - http://www.bohemiancoding.com/sketch -->
    <title>Contacting 0@2x</title>
    <desc>Created with Sketch.</desc>
    <defs></defs>
    <g id="Page-1" stroke="none" stroke-width="1" fill="none" fill-rule="evenodd">
        <g id="Provider-chosen-hover-Copy" transform="translate(-838.000000, -178.000000)" fill="#54D0FF" stroke="#54D0FF" stroke-width="0.1">
            <path d="M847.767731,180.246574 L851.671121,184.306878 L839.684925,184.306878 C839.307669,184.306878 839,184.626817 839,185.019087 C839,185.411358 839.307682,185.731296 839.684925,185.731296 L851.671121,185.731296 L847.766361,189.790176 C847.62991,189.932062 847.560349,190.110114 847.560349,190.288152 C847.560349,190.46619 847.628575,190.644257 847.766361,190.786129 C848.040599,191.07129 848.451287,191.07129 848.725531,190.786129 L853.794322,185.515426 C854.068559,185.230264 854.068559,184.803217 853.794322,184.518048 L848.725531,179.213871 C848.451294,178.92871 848.040605,178.92871 847.766361,179.213871 C847.62991,179.357146 847.561685,179.535198 847.561685,179.748028 C847.561719,179.92665 847.629945,180.104702 847.767731,180.246574 Z" id="Contacting-0"></path>
        </g>
    </g>
</svg>