<?xml version="1.0" encoding="UTF-8"?>
<svg width="30px" height="17px" viewBox="0 0 30 17" version="1.1" xmlns="http://www.w3.org/2000/svg" xmlns:xlink="http://www.w3.org/1999/xlink">
    <!-- Generator: Sketch 50.2 (55047) - http://www.bohemiancoding.com/sketch -->
    <title>Dashboard</title>
    <desc>Created with Sketch.</desc>
    <defs></defs>
    <g id="Page-1" stroke="none" stroke-width="1" fill="none" fill-rule="evenodd">
        <g id="Provider-chosen-hover-Copy" transform="translate(-19.000000, -87.000000)" fill="#54D0FF" stroke="#54D0FF" stroke-width="0.8">
            <g id="Side-menu">
                <path d="M48,98.3448276 L48,98.3448276 C48,98.6544828 47.7993333,98.862069 47.5,98.862069 L41,98.862069 C40.7993333,98.862069 40.6513333,98.76 40.5493333,98.6034483 L36,89.6537931 L29.9506667,102.690345 C29.8513333,102.846207 29.7006667,102.948966 29.5493333,103 C29.5493333,103 29.5493333,103 29.5,103 C29.3486667,103 29.1513333,102.897931 29.0986667,102.741379 L26.7006667,98.862069 L20.5,98.862069 C20.2006667,98.862069 20,98.6544828 20,98.3448276 C20,98.0351724 20.2006667,97.8275862 20.5,97.8275862 L27,97.8275862 C27.1513333,97.8275862 27.3486667,97.9296552 27.4013333,98.0862069 L29.4013333,101.448276 L35.5,88.3096552 C35.5986667,88.1537931 35.75,88 35.9506667,88 C36.1513333,88 36.2993333,88.102069 36.4013333,88.2586207 L41.2993333,97.8275862 L47.5,97.8275862 C47.7993333,97.8275862 48,98.0351724 48,98.3448276 Z" id="Dashboard"></path>
            </g>
        </g>
    </g>
</svg>