<?xml version="1.0" encoding="UTF-8"?>
<svg width="8px" height="5px" viewBox="0 0 8 5" version="1.1" xmlns="http://www.w3.org/2000/svg" xmlns:xlink="http://www.w3.org/1999/xlink">
    <!-- Generator: Sketch 50.2 (55047) - http://www.bohemiancoding.com/sketch -->
    <title>Dropdown</title>
    <desc>Created with Sketch.</desc>
    <defs></defs>
    <g id="Page-1" stroke="none" stroke-width="1" fill="none" fill-rule="evenodd">
        <g id="Provider-chosen-hover-Copy" transform="translate(-1222.000000, -28.000000)" fill="#728B9B" stroke="#728B9B" stroke-width="0.5">
            <g id="Head-menu" transform="translate(70.000000, 0.000000)">
                <path d="M1157.85947,27.1314325 C1157.77439,27.0473175 1157.65875,27 1157.53866,27 C1157.41813,27 1157.30248,27.0473153 1157.21741,27.1314325 L1154.13294,30.1788636 C1154.04786,30.2629786 1154,30.3768815 1154,30.4960445 C1154,30.6152074 1154.04786,30.7291104 1154.13294,30.8132254 L1157.21741,33.8606564 C1157.3016,33.9482762 1157.41858,33.9986611 1157.54088,33.9999733 C1157.66318,34.0012878 1157.78105,33.9539725 1157.86746,33.8681034 C1157.95387,33.782674 1158.00172,33.6661376 1157.99995,33.5452251 C1157.99818,33.4243126 1157.94722,33.3090862 1157.8586,33.225846 L1155.09493,30.4960333 L1157.8586,27.7662205 C1157.94368,27.6821055 1157.99198,27.5682026 1157.99198,27.4490396 C1157.99242,27.3298767 1157.94456,27.2155363 1157.85948,27.1314213 L1157.85947,27.1314325 Z" id="Dropdown" transform="translate(1156.000000, 30.500000) rotate(-90.000000) translate(-1156.000000, -30.500000) "></path>
            </g>
        </g>
    </g>
</svg>