<?xml version="1.0" encoding="UTF-8"?>
<svg width="27px" height="27px" viewBox="0 0 27 27" version="1.1" xmlns="http://www.w3.org/2000/svg" xmlns:xlink="http://www.w3.org/1999/xlink">
    <!-- Generator: Sketch 50.2 (55047) - http://www.bohemiancoding.com/sketch -->
    <title>FAQ</title>
    <desc>Created with Sketch.</desc>
    <defs></defs>
    <g id="Page-1" stroke="none" stroke-width="1" fill="none" fill-rule="evenodd">
        <g id="Provider-chosen-hover-Copy" transform="translate(-22.000000, -160.000000)" fill="#54D0FF" stroke="#54D0FF" stroke-width="0.4">
            <g id="Side-menu">
                <path d="M48,173.5 C48,180.39877 42.3987703,186 35.5,186 C28.6012297,186 23,180.39877 23,173.5 C23,166.60123 28.6012297,161 35.5,161 C42.3970431,161 48,166.60123 48,173.5 Z M36,178 C36,179.333333 34,179.333333 34,178 C34,176.666667 36,176.666667 36,178 Z M36.7678047,170.936341 C36.7362219,170.039858 36.0182127,169.292789 35.0887187,169.264898 C34.6077805,169.235414 34.1580253,169.414312 33.7990207,169.742624 C33.4380172,170.070936 33.2585149,170.519178 33.2585149,170.997302 L32,170.997302 C32,170.159788 32.3294207,169.383234 32.9290943,168.815063 C33.5287678,168.246892 34.3375276,167.948064 35.1187024,168.007431 C36.6474702,168.0664 37.9371682,169.352156 37.9967357,170.875779 C38.0559035,172.161137 37.3063116,173.326963 36.1069644,173.804689 C35.8367115,173.924619 35.6276253,174.252931 35.6276253,174.581641 L35.6276253,175 L34.3691104,175 L34.3691104,174.581641 C34.3691104,173.714642 34.8796325,172.938089 35.6588084,172.639261 C36.3476334,172.371511 36.7973886,171.683411 36.7678047,170.936341 Z M24.359287,173.5 C24.359287,179.62111 29.3788905,184.640713 35.5,184.640713 C41.6211095,184.640713 46.640713,179.62111 46.640713,173.5 C46.640713,167.37889 41.6530623,162.359287 35.5,162.359287 C29.3469377,162.359287 24.359287,167.37889 24.359287,173.5 Z" id="FAQ"></path>
            </g>
        </g>
    </g>
</svg>