<?xml version="1.0" encoding="UTF-8"?>
<svg width="40px" height="35px" viewBox="0 0 40 35" version="1.1" xmlns="http://www.w3.org/2000/svg" xmlns:xlink="http://www.w3.org/1999/xlink">
    <!-- Generator: Sketch 50.2 (55047) - http://www.bohemiancoding.com/sketch -->
    <title>Go</title>
    <desc>Created with Sketch.</desc>
    <defs></defs>
    <g id="Page-1" stroke="none" stroke-width="1" fill="none" fill-rule="evenodd">
        <g id="Provider-chosen-hover-Copy" transform="translate(-300.000000, -13.000000)">
            <g id="Head-menu" transform="translate(70.000000, 0.000000)">
                <g id="Go" transform="translate(230.000000, 13.000000)">
                    <path d="M0,0 L34.9946779,0 C37.759041,0 40,2.24265032 40,4.99604858 L40,30.0039514 C40,32.7631929 37.7637156,35 34.9946779,35 L0,35 L0,0 Z" id="Rectangle-5" fill="#54D0FF"></path>
                    <path d="M26.7355566,18.1221655 C27.0900245,17.7716371 27.087201,17.2014996 26.7327331,16.8523984 L21.0187738,11.2243252 C20.3366778,10.544394 19.3156488,11.5635916 19.9963348,12.2435192 L24.2894867,16.5216045 C24.430707,16.6637857 24.384106,16.7792194 24.1849833,16.7792194 L14.7230572,16.7792194 C14.3233873,16.7792194 14,17.1015912 14,17.4999818 C14,17.8983724 14.3233982,18.2207442 14.7230572,18.2207442 L24.1849833,18.2207442 C24.3855196,18.2207442 24.4335342,18.3333633 24.2894867,18.4769536 L19.9963348,22.7564803 C19.3156488,23.4364115 20.3366814,24.4556056 21.0187738,23.7756744 L26.7355566,18.1221655 Z" id="Page-1" fill="#FFFFFF"></path>
                </g>
            </g>
        </g>
    </g>
</svg>