<?xml version="1.0" encoding="UTF-8"?>
<svg width="14px" height="17px" viewBox="0 0 14 17" version="1.1" xmlns="http://www.w3.org/2000/svg" xmlns:xlink="http://www.w3.org/1999/xlink">
    <!-- Generator: Sketch 50.2 (55047) - http://www.bohemiancoding.com/sketch -->
    <title>Home care agency@2x</title>
    <desc>Created with Sketch.</desc>
    <defs></defs>
    <g id="Page-1" stroke="none" stroke-width="1" fill="none" fill-rule="evenodd">
        <g id="Provider-chosen-hover-Copy" transform="translate(-163.000000, -327.000000)" fill="#B9C6CE">
            <path d="M176.649651,333.173018 L176.649594,333.173018 C176.851776,333.415225 176.980572,333.733336 176.99928,334.087904 L177,342.38023 C177,343.165272 176.373277,343.8 175.599783,343.8 L164.400217,343.8 C163.625986,343.8 163,343.164525 163,342.38023 L163,334.087904 C163,333.69613 163.147508,333.340814 163.405093,333.079632 C163.479326,332.967195 168.949892,327.420238 168.949892,327.420238 C169.521208,326.859921 170.423495,326.859921 170.976096,327.420238 L176.649651,333.173018 Z M173.295317,334.878118 C173.068621,334.474264 171.64745,333.121916 169.999978,335.079851 C168.269856,333.121916 166.930939,334.474264 166.70464,334.878118 C166.292574,335.624879 166.539734,336.755437 167.116705,337.300466 L170.000374,340.126667 L172.884042,337.300466 C173.460232,336.755437 173.707392,335.625267 173.295336,334.878118 L173.295317,334.878118 Z" id="Home-care-agency"></path>
        </g>
    </g>
</svg>