<?xml version="1.0" encoding="UTF-8"?>
<svg width="3px" height="15px" viewBox="0 0 3 15" version="1.1" xmlns="http://www.w3.org/2000/svg" xmlns:xlink="http://www.w3.org/1999/xlink">
    <!-- Generator: Sketch 50.2 (55047) - http://www.bohemiancoding.com/sketch -->
    <title>kebab menu@2x</title>
    <desc>Created with Sketch.</desc>
    <defs></defs>
    <g id="Page-1" stroke="none" stroke-width="1" fill="none" fill-rule="evenodd">
        <g id="Provider-chosen-hover-Copy" transform="translate(-1187.000000, -229.000000)" fill="#B9C6CE">
            <path d="M1188.5,232 C1187.67157,232 1187,231.328427 1187,230.5 C1187,229.671573 1187.67157,229 1188.5,229 C1189.32843,229 1190,229.671573 1190,230.5 C1190,231.328427 1189.32843,232 1188.5,232 Z M1188.5,238 C1187.67157,238 1187,237.328427 1187,236.5 C1187,235.671573 1187.67157,235 1188.5,235 C1189.32843,235 1190,235.671573 1190,236.5 C1190,237.328427 1189.32843,238 1188.5,238 Z M1188.5,244 C1187.67157,244 1187,243.328427 1187,242.5 C1187,241.671573 1187.67157,241 1188.5,241 C1189.32843,241 1190,241.671573 1190,242.5 C1190,243.328427 1189.32843,244 1188.5,244 Z" id="kebab-menu"></path>
        </g>
    </g>
</svg>