<?xml version="1.0" encoding="UTF-8"?>
<svg width="3px" height="15px" viewBox="0 0 3 15" version="1.1" xmlns="http://www.w3.org/2000/svg" xmlns:xlink="http://www.w3.org/1999/xlink">
    <!-- Generator: Sketch 50.2 (55047) - http://www.bohemiancoding.com/sketch -->
    <title>kebab menu hover@2x</title>
    <desc>Created with Sketch.</desc>
    <defs></defs>
    <g id="Page-1" stroke="none" stroke-width="1" fill="none" fill-rule="evenodd">
        <g id="Provider-chosen-hover-Copy" transform="translate(-1187.000000, -178.000000)" fill="#728B9B">
            <path d="M1188.5,181 C1187.67157,181 1187,180.328427 1187,179.5 C1187,178.671573 1187.67157,178 1188.5,178 C1189.32843,178 1190,178.671573 1190,179.5 C1190,180.328427 1189.32843,181 1188.5,181 Z M1188.5,187 C1187.67157,187 1187,186.328427 1187,185.5 C1187,184.671573 1187.67157,184 1188.5,184 C1189.32843,184 1190,184.671573 1190,185.5 C1190,186.328427 1189.32843,187 1188.5,187 Z M1188.5,193 C1187.67157,193 1187,192.328427 1187,191.5 C1187,190.671573 1187.67157,190 1188.5,190 C1189.32843,190 1190,190.671573 1190,191.5 C1190,192.328427 1189.32843,193 1188.5,193 Z" id="kebab-menu-hover"></path>
        </g>
    </g>
</svg>