<?xml version="1.0" encoding="UTF-8"?>
<svg width="20px" height="20px" viewBox="0 0 20 20" version="1.1" xmlns="http://www.w3.org/2000/svg" xmlns:xlink="http://www.w3.org/1999/xlink">
    <!-- Generator: Sketch 50.2 (55047) - http://www.bohemiancoding.com/sketch -->
    <title>Sign out</title>
    <desc>Created with Sketch.</desc>
    <defs></defs>
    <g id="Page-1" stroke="none" stroke-width="1" fill="none" fill-rule="evenodd">
        <g id="Provider-chosen-hover-Copy" transform="translate(-25.000000, -242.000000)" fill="#54D0FF" fill-rule="nonzero">
            <g id="Side-menu">
                <path d="M28.0546888,250.32534 L37.0045583,250.325416 C37.522264,250.313285 38.0408995,250.723039 38.0408995,251.234667 C38.0408995,251.741294 37.5292259,252.148667 37.0115859,252.148667 L28.0520014,252.148667 L31.3797034,255.443092 C31.7458856,255.8066 31.7458856,256.392308 31.3794135,256.739195 C31.2068249,256.910058 30.9744572,257.003333 30.7346801,257.003333 C30.4958633,257.003333 30.2667436,256.914123 30.0786887,256.739383 L25.532712,252.246866 C25.2606395,251.976672 25.1074074,251.616832 25.1074074,251.242 C25.1074074,250.86314 25.2633233,250.491177 25.5330444,250.237471 L30.0814828,245.734518 C30.4461823,245.374446 31.0181088,245.374446 31.3821072,245.734805 C31.7485759,246.097609 31.7485759,246.68331 31.3821072,247.031195 L28.0546888,250.32534 Z M43.0126799,243.478175 C43.1728288,242.954351 43.7271251,242.659482 44.2589598,242.82208 C44.7871124,242.983553 45.0821461,243.549863 44.9252894,244.062918 L39.6578056,261.292081 C39.4976568,261.815904 38.9433604,262.110774 38.4115257,261.948175 C37.8833732,261.786703 37.5883394,261.220393 37.7451961,260.707338 L43.0126799,243.478175 Z" id="Sign-out"></path>
            </g>
        </g>
    </g>
</svg>