<?xml version="1.0" encoding="UTF-8"?>
<svg width="21px" height="20px" viewBox="0 0 21 20" version="1.1" xmlns="http://www.w3.org/2000/svg" xmlns:xlink="http://www.w3.org/1999/xlink">
    <!-- Generator: Sketch 50.2 (55047) - http://www.bohemiancoding.com/sketch -->
    <title>Star yellow</title>
    <desc>Created with Sketch.</desc>
    <defs></defs>
    <g id="Page-1" stroke="none" stroke-width="1" fill="none" fill-rule="evenodd">
        <g id="Provider-chosen-4" transform="translate(-617.000000, -117.000000)" fill="#F5C523">
            <g id="Provide-feedback" transform="translate(510.000000, 40.000000)">
                <path d="M123.454765,96.9982974 L117.525244,94.1371414 C117.364954,94.0588235 117.179292,94.0588235 117.018599,94.1371414 L111.089481,96.9982974 L111.844616,90.1863454 C111.864753,90.0020431 111.80837,89.8173151 111.688756,89.6811101 L107.272727,84.6415255 L113.666203,83.2913935 C113.839381,83.2547885 113.988797,83.1402911 114.073774,82.9789734 L117.273533,77 L120.47168,82.9789734 C120.558269,83.1402911 120.706074,83.2547885 120.879252,83.2913935 L127.272727,84.6432281 L122.853476,89.6828126 C122.734266,89.8190176 122.67748,90.0037456 122.698019,90.188048 L123.453154,97 L123.454765,96.9982974 Z" id="Star-yellow"></path>
            </g>
        </g>
    </g>
</svg>