<?xml version="1.0" encoding="UTF-8"?>
<svg width="16px" height="16px" viewBox="0 0 16 16" version="1.1" xmlns="http://www.w3.org/2000/svg" xmlns:xlink="http://www.w3.org/1999/xlink">
    <!-- Generator: Sketch 50.2 (55047) - http://www.bohemiancoding.com/sketch -->
    <title>Talked to the client@2x</title>
    <desc>Created with Sketch.</desc>
    <defs></defs>
    <g id="Page-1" stroke="none" stroke-width="1" fill="none" fill-rule="evenodd">
        <g id="Provider-chosen-hover-Copy" transform="translate(-839.000000, -229.000000)" stroke="#54D0FF" stroke-width="1.6">
            <path d="M850.287826,239.185266 C850.288363,239.185749 850.28867,239.185995 850.288786,239.186067 C850.288175,239.185691 850.287571,239.185323 850.286974,239.184965 Z M845.083507,241.670914 L845.057381,241.685512 L844.632559,241.311275 C842.801748,239.698466 841.599559,238.184774 840.909498,236.805993 C840.501338,235.990468 840.331886,235.357582 840.303582,234.942918 C840.03231,233.660693 840.300314,232.516464 840.910524,231.559596 C841.177733,231.140586 841.450739,230.844582 841.641387,230.684251 C841.642854,230.68296 841.642854,230.68296 841.644322,230.681671 C842.269163,230.133395 842.98276,230.088652 843.60471,230.349295 C843.741195,230.406492 843.847815,230.467907 843.923505,230.521551 L844.022502,230.60449 L845.859431,232.415248 C846.603227,233.1758 846.596543,234.055358 846.12742,234.76755 C846.014243,234.939367 845.89836,235.066698 845.838006,235.118427 L845.409911,235.547781 C845.765143,236.181053 846.25128,236.781136 846.83944,237.341103 C847.314203,237.793109 847.825528,238.191011 848.33638,238.529323 C848.393686,238.567275 848.448416,238.602837 848.500319,238.635982 L849.148618,237.994978 L849.287476,237.885218 C849.944286,237.475224 850.605245,237.502401 851.126815,237.823089 C851.276556,237.915158 851.387023,238.013432 851.422076,238.057007 L853.312802,239.928836 C853.955272,240.737497 853.929078,241.580731 853.455337,242.22209 C853.36375,242.346081 853.270117,242.443857 853.183936,242.518222 C852.864269,242.88401 852.496137,243.168998 852.091031,243.377395 C851.316862,243.775648 850.51751,243.859893 849.805077,243.77015 C849.709136,243.758064 849.634738,243.744873 849.645112,243.744763 C848.563878,243.589897 847.477483,243.163492 846.416623,242.552143 C845.952006,242.284395 845.522686,241.998153 845.137462,241.711294 C845.119084,241.697609 845.101099,241.684145 845.083512,241.670911 Z" id="Talked-to-the-client"></path>
        </g>
    </g>
</svg>