<?xml version="1.0" encoding="UTF-8"?>
<svg width="34px" height="29px" viewBox="0 0 34 29" version="1.1" xmlns="http://www.w3.org/2000/svg" xmlns:xlink="http://www.w3.org/1999/xlink">
    <!-- Generator: Sketch 50.2 (55047) - http://www.bohemiancoding.com/sketch -->
    <title>TrueCare24_logo</title>
    <desc>Created with Sketch.</desc>
    <defs></defs>
    <g id="Page-1" stroke="none" stroke-width="1" fill="none" fill-rule="evenodd">
        <g id="Provider-chosen-hover-Copy" transform="translate(-19.000000, -19.000000)" fill="#54D0FF">
            <g id="Side-menu">
                <path d="M29.3041005,24.4641292 L29.3041005,22 C29.3041005,20.3431458 30.6472462,19 32.3041005,19 L39.3041005,19 C40.9609547,19 42.3041005,20.3431458 42.3041005,22 L42.3041005,24.4641292 L49.6148286,24.4641292 C51.2717574,24.4641292 52.6149636,25.8038983 52.6149636,27.4700657 L52.6149636,44.8170084 C52.6149636,46.4771413 51.2678815,47.8229449 49.6148286,47.8229449 L22.3042355,47.8229449 C20.6473067,47.8229449 19.3041005,46.4831758 19.3041005,44.8170084 L19.3041005,27.4700657 C19.3041005,25.8099328 20.6511826,24.4641292 22.3042355,24.4641292 L29.3041005,24.4641292 Z M31.3041005,24.4641292 L40.3041005,24.4641292 L40.3041005,22 C40.3041005,21.4477153 39.8563852,21 39.3041005,21 L32.3041005,21 C31.7518157,21 31.3041005,21.4477153 31.3041005,22 L31.3041005,24.4641292 Z M49.8211493,27.3193913 L49.8211493,25.7382464 L47.8869701,25.7382464 L47.8869701,27.3193913 L46.3058253,27.3193913 L46.3058253,29.2535704 L47.8869701,29.2535704 L47.8869701,30.8347153 L49.8211493,30.8347153 L49.8211493,29.2535704 L51.4022941,29.2535704 L51.4022941,27.3193913 L49.8211493,27.3193913 Z M24.4619115,33.0712253 L24.4619115,33.1244993 L27.1801838,33.1244993 L27.1801838,33.0605705 C27.1801838,31.6434832 28.2383684,30.8363597 29.5975045,30.8363597 C30.8789757,30.8363597 31.665333,31.5369353 31.665333,32.7728912 C31.665333,33.7744416 31.1702192,34.573551 29.1994718,36.6831997 L24.6269495,41.5950588 L24.6269495,43.8432198 L34.7330975,43.8432198 L34.7330975,41.1688671 L28.5975686,41.1688671 L28.5975686,40.9770808 L31.2770084,38.1748706 C33.7040372,35.6709945 34.529227,34.2325976 34.529227,32.5597953 C34.529227,29.917407 32.4905228,28.074128 29.5683802,28.074128 C26.5394482,28.074128 24.4619115,30.0985384 24.4619115,33.0712253 Z M45.1385991,41.1279193 L46.8124262,41.1279193 L46.8124262,38.3928392 L45.1385991,38.3928392 L45.1385991,28.074128 L42.293093,28.074128 L35.6371688,38.1894035 L35.6371688,41.1279193 L42.4801678,41.1279193 L42.4801678,43.7160736 L45.1385991,43.7160736 L45.1385991,41.1279193 Z M42.4801678,32.255862 L42.4801678,38.3928392 L38.3448303,38.3928392 L42.4801678,32.255862 Z" id="TrueCare24_logo"></path>
            </g>
        </g>
    </g>
</svg>